<?xml version="1.0" encoding="iso-8859-1"?>
<!-- Generator: Adobe Illustrator 21.0.0, SVG Export Plug-In . SVG Version: 6.00 Build 0)  -->
<svg version="1.1" id="Capa_1" xmlns="http://www.w3.org/2000/svg" xmlns:xlink="http://www.w3.org/1999/xlink" x="0px" y="0px"
	 viewBox="0 0 448 448" style="enable-background:new 0 0 448 448;" xml:space="preserve">
<g>
	<g>
		<rect x="336" y="216" width="16" height="16"/>
	</g>
</g>
<g>
	<g>
		<path d="M344.008,48.992c-18.102-0.001-35.891,4.722-51.608,13.704C260.031,81.251,240.047,115.69,240,153v178.632l91.016,58.512
			c7.913,5.071,18.055,5.071,25.968,0L448,331.632V153C448.004,95.562,401.445,48.997,344.008,48.992z M411.856,247.608
			c-7.218,20.716-23.515,36.992-44.24,44.184c-2.099,13.034-14.366,21.899-27.4,19.8c-10.179-1.639-18.161-9.62-19.8-19.8
			c-20.725-7.192-37.022-23.468-44.24-44.184c-13.034-2.099-21.899-14.366-19.8-27.4c1.639-10.179,9.62-18.161,19.8-19.8
			c7.218-20.716,23.515-36.992,44.24-44.184c2.099-13.034,14.366-21.899,27.4-19.8c10.179,1.639,18.161,9.62,19.8,19.8
			c20.725,7.192,37.022,23.468,44.24,44.184C423.434,202.293,431.953,212.27,432,224
			C431.961,235.736,423.44,245.722,411.856,247.608z"/>
	</g>
</g>
<g>
	<g>
		<polygon points="272,371.224 272,448 288,448 288,381.512 		"/>
	</g>
</g>
<g>
	<g>
		<polygon points="240,350.656 240,448 256,448 256,360.936 		"/>
	</g>
</g>
<g>
	<g>
		<path d="M208,200H96c-49.893,0.062-91.445,38.285-95.664,88H224v-86.4C218.722,200.614,213.369,200.079,208,200z M88,232
			c-22.08,0.026-39.974,17.92-40,40H32c0.035-30.913,25.087-55.965,56-56V232z M184,256c-4.418,0-8-3.582-8-8s3.582-8,8-8
			s8,3.582,8,8S188.418,256,184,256z"/>
	</g>
</g>
<g>
	<g>
		<path d="M0,336v112h224V336H0z M48,432H32v-80h16V432z"/>
	</g>
</g>
<g>
	<g>
		<path d="M24,176v34.336c9.544-8.013,20.359-14.375,32-18.824V176H24z"/>
	</g>
</g>
<g>
	<g>
		<polygon points="432,360.936 432,448 448,448 448,350.656 		"/>
	</g>
</g>
<g>
	<g>
		<rect y="304" width="224" height="16"/>
	</g>
</g>
<g>
	<g>
		<path d="M328,0h-88c-13.255,0-24,10.745-24,24v160.488c2.656,0.2,5.312,0.464,8,0.864V153c0.023-14.641,2.735-29.154,8-42.816V24
			c0-4.418,3.582-8,8-8h88c4.418,0,8,3.582,8,8v9.344c5.327-0.36,10.673-0.36,16,0V24C352,10.745,341.255,0,328,0z"/>
	</g>
</g>
<g>
	<g>
		<path d="M344,152c-4.418,0-8,3.582-8,8v40h16v-40C352,155.582,348.418,152,344,152z"/>
	</g>
</g>
<g>
	<g>
		<path d="M368,248v26.4c11.593-5.497,20.939-14.82,26.464-26.4H368z"/>
	</g>
</g>
<g>
	<g>
		<path d="M368,173.6V200h26.464C388.939,188.42,379.593,179.097,368,173.6z"/>
	</g>
</g>
<g>
	<g>
		<path d="M408,216h-40v16h40c4.418,0,8-3.582,8-8S412.418,216,408,216z"/>
	</g>
</g>
<g>
	<g>
		<rect x="128" y="0" width="48" height="184"/>
	</g>
</g>
<g>
	<g>
		<path d="M293.536,200H320v-26.4C308.407,179.097,299.061,188.42,293.536,200z"/>
	</g>
</g>
<g>
	<g>
		<path d="M280,216c-4.418,0-8,3.582-8,8s3.582,8,8,8h40v-16H280z"/>
	</g>
</g>
<g>
	<g>
		<path d="M293.536,248c5.525,11.58,14.871,20.903,26.464,26.4V248H293.536z"/>
	</g>
</g>
<g>
	<g>
		<path d="M336,248v40c0,4.418,3.582,8,8,8s8-3.582,8-8v-40H336z"/>
	</g>
</g>
<g>
</g>
<g>
</g>
<g>
</g>
<g>
</g>
<g>
</g>
<g>
</g>
<g>
</g>
<g>
</g>
<g>
</g>
<g>
</g>
<g>
</g>
<g>
</g>
<g>
</g>
<g>
</g>
<g>
</g>
</svg>
